<?xml version="1.0" encoding="utf-8"?>
<!-- Generator: Adobe Illustrator 16.0.0, SVG Export Plug-In . SVG Version: 6.00 Build 0)  -->
<!DOCTYPE svg PUBLIC "-//W3C//DTD SVG 1.1//EN" "http://www.w3.org/Graphics/SVG/1.1/DTD/svg11.dtd">
<svg version="1.1" id="Capa_3" xmlns="http://www.w3.org/2000/svg" xmlns:xlink="http://www.w3.org/1999/xlink" x="0px" y="0px"
	 width="479.565px" height="480px" viewBox="80 0 479.565 480" enable-background="new 80 0 479.565 480" xml:space="preserve">
<g>
	<path fill="#344E5D" d="M208.518,292.03l11.982,0.55l52.127-80.14l51.4,80.141h14.785l-24.449-38.124l15.935-24.848l40.386,62.969
		h16.283v46.089L430.5,338.5V143.735H208.518V292.03z M387.5,168.5c13.807,0,25,11.193,25,25s-11.193,25-25,25s-25-11.193-25-25
		S373.693,168.5,387.5,168.5z"/>
	<path fill="#344E5D" d="M320,0.001c-132.548,0-240,107.452-240,240s107.452,240,240,240c132.549,0,240-107.452,240-240
		S452.549,0.001,320,0.001z M457.5,349.5c0,6.627-5.373,12-12,12H193.894c-6.627,0-12-5.373-12-12V128.586c0-6.627,5.373-12,12-12
		H445.5c6.627,0,12,5.373,12,12V349.5z"/>
</g>
</svg>
